Coordinates
version=1
nRows=27
nColumns=12
inDegrees=yes

Units are S.I. units (second, meters, Newtons, ...)
Angles are in degrees

endheader
time	SC_y	SC_z	SC_x	AC_y	AC_z	AC_x	GH_y	GH_z	GH_yy	EL_x	PS_y
       0.0              -46.63         -3.028           66.1          59.67          2.635          1.575          159.5         -1.982          154.8          131.6          131.3
   0.04681              -46.63         -3.026          66.09          59.67          2.633          1.576          159.4         -1.985          154.8          131.6          131.3
   0.09361              -46.63         -3.023          66.09          59.66          2.631          1.576          159.4         -1.988          154.7          131.6          131.3
    0.1404              -46.64         -3.021          66.08          59.66          2.629          1.577          159.3          -1.99          154.7          131.6          131.3
    0.1872              -46.64         -3.018          66.07          59.66          2.627          1.577          159.3         -1.994          154.7          131.6          131.3
     0.234              -46.64         -3.016          66.07          59.65          2.625          1.578          159.2         -1.997          154.6          131.5          131.3
    0.2808              -46.64         -3.013          66.06          59.65          2.623          1.579          159.2           -2.0          154.6          131.5          131.3
    0.3276              -46.64         -3.009          66.05          59.65           2.62          1.579          159.1         -2.004          154.5          131.5          131.3
    0.3744              -46.64         -3.006          66.04          59.64          2.617           1.58          159.0         -2.008          154.5          131.5          131.3
    0.4213              -46.65         -3.002          66.03          59.64          2.614          1.581          158.9         -2.013          154.4          131.5          131.3
    0.4681              -46.65         -2.999          66.02          59.63          2.611          1.582          158.8         -2.017          154.4          131.4          131.3
    0.5149              -46.65         -2.994          66.01          59.62          2.608          1.583          158.8         -2.022          154.3          131.4          131.3
    0.5617              -46.65          -2.99           66.0          59.62          2.604          1.584          158.7         -2.028          154.2          131.4          131.3
    0.6085              -46.66         -2.985          65.98          59.61            2.6          1.585          158.6         -2.034          154.2          131.4          131.3
    0.6553              -46.66          -2.98          65.97          59.61          2.596          1.586          158.4          -2.04          154.1          131.3          131.3
    0.7021              -46.66         -2.974          65.96           59.6          2.591          1.587          158.3         -2.047          154.0          131.3          131.3
    0.7489              -46.67         -2.968          65.94          59.59          2.586          1.589          158.2         -2.054          153.9          131.3          131.3
    0.7957              -46.67         -2.961          65.92          59.58          2.581           1.59          158.0         -2.062          153.8          131.2          131.3
    0.8425              -46.67         -2.954           65.9          59.57          2.575          1.592          157.9         -2.071          153.7          131.2          131.3
    0.8893              -46.68         -2.946          65.88          59.56          2.568          1.594          157.7         -2.081          153.6          131.1          131.3
    0.9361              -46.68         -2.937          65.86          59.55          2.561          1.596          157.5         -2.092          153.5          131.1          131.3
    0.9829              -46.69         -2.927          65.83          59.53          2.553          1.598          157.3         -2.103          153.3          131.0          131.3
      1.03               -46.7         -2.916           65.8          59.52          2.544            1.6          157.0         -2.116          153.2          131.0          131.3
     1.077               -46.7         -2.904          65.77           59.5          2.534          1.603          156.8         -2.131          153.0          130.9          131.3
     1.123              -46.71         -2.891          65.73          59.49          2.523          1.606          156.5         -2.147          152.8          130.8          131.3
      1.17              -46.72         -2.876          65.69          59.47          2.511          1.609          156.2         -2.165          152.6          130.7          131.3
     1.217              -46.73         -2.859          65.65          59.44          2.498          1.613          155.8         -2.185          152.4          130.6          131.3
